<svg class="innovation" xmlns="http://www.w3.org/2000/svg" viewBox="0 0 409.58 122.83" style="enable-background:new 0 0 506.6 153.9;" xml:space="preserve" x="0px" y="0px">
<style type="text/css">
    .st0{fill:#ffffff;}
</style>
    <g class="innovation">
        <path d="M427.23,244.84a2,2,0,0,0-1.38.54,1.75,1.75,0,0,0-.58,1.32,1.72,1.72,0,0,0,.58,1.32,2,2,0,0,0,2.76,0,1.72,1.72,0,0,0,.58-1.32,1.75,1.75,0,0,0-.58-1.32A1.93,1.93,0,0,0,427.23,244.84Z" transform="translate(-191.68 -244.84)"></path>
        <rect x="234.15" y="6.72" width="2.75" height="17.92"></rect>
        <path d="M445.79,252.06a6.65,6.65,0,0,0-3.19-.74,5.93,5.93,0,0,0-3.31.84,5.11,5.11,0,0,0-1.92,2.2h-.23v-2.8h-2.66v17.92h2.75V258.7a5.45,5.45,0,0,1,.6-2.66,4.1,4.1,0,0,1,1.63-1.67,4.75,4.75,0,0,1,2.35-.57,3.9,3.9,0,0,1,3,1.18,4.68,4.68,0,0,1,1.09,3.3v11.2h2.76V258.09a8.44,8.44,0,0,0-.76-3.79A5.12,5.12,0,0,0,445.79,252.06Z" transform="translate(-191.68 -244.84)"></path>
        <path d="M465.51,252.06a6.65,6.65,0,0,0-3.19-.74,5.93,5.93,0,0,0-3.31.84,5.11,5.11,0,0,0-1.92,2.2h-.23v-2.8H454.2v17.92H457V258.7a5.45,5.45,0,0,1,.6-2.66,4.1,4.1,0,0,1,1.63-1.67,4.75,4.75,0,0,1,2.35-.57,3.9,3.9,0,0,1,3,1.18,4.68,4.68,0,0,1,1.09,3.3v11.2h2.76V258.09a8.3,8.3,0,0,0-.76-3.79A5.12,5.12,0,0,0,465.51,252.06Z" transform="translate(-191.68 -244.84)"></path>
        <path d="M485.09,252.48a7.86,7.86,0,0,0-11.35,3.24,11,11,0,0,0-1,4.89,10.86,10.86,0,0,0,1,4.85,7.86,7.86,0,0,0,14.2,0,10.86,10.86,0,0,0,1-4.85,11,11,0,0,0-1-4.89A7.77,7.77,0,0,0,485.09,252.48Zm.55,11.47a5.63,5.63,0,0,1-1.77,2.48,5.31,5.31,0,0,1-6.06,0A5.63,5.63,0,0,1,476,264a9.56,9.56,0,0,1-.57-3.34,9.66,9.66,0,0,1,.57-3.35,5.72,5.72,0,0,1,1.77-2.51,5.31,5.31,0,0,1,6.06,0,5.72,5.72,0,0,1,1.77,2.51,9.66,9.66,0,0,1,.57,3.35A9.56,9.56,0,0,1,485.64,264Z" transform="translate(-191.68 -244.84)"></path>
        <polygon points="307.68 21 307.49 21 302.54 6.72 299.56 6.72 306.18 24.64 308.98 24.64 315.61 6.72 312.62 6.72 307.68 21"></polygon>
        <path d="M521.45,252.36a6.38,6.38,0,0,0-2.19-.83,11,11,0,0,0-2-.21,10.5,10.5,0,0,0-2.74.37A7,7,0,0,0,512,253a6.33,6.33,0,0,0-1.87,2.55l2.61.94a5.05,5.05,0,0,1,1.58-1.85,5,5,0,0,1,3.09-.86,3.81,3.81,0,0,1,2.84,1,3.63,3.63,0,0,1,.94,2.68v.09a1,1,0,0,1-.47.94,4.06,4.06,0,0,1-1.5.37l-2.65.33c-.83.11-1.66.25-2.48.43a8.86,8.86,0,0,0-2.25.83,4.35,4.35,0,0,0-1.62,1.51,4.65,4.65,0,0,0-.61,2.5,5.09,5.09,0,0,0,3,4.86,7.21,7.21,0,0,0,3.09.65,6.75,6.75,0,0,0,2.65-.47,5.52,5.52,0,0,0,1.74-1.13,5,5,0,0,0,.93-1.25h.14v2.43h2.75V257.67a7.06,7.06,0,0,0-.7-3.41A4.83,4.83,0,0,0,521.45,252.36Zm-.3,10.63a4.16,4.16,0,0,1-.58,2.13,4.38,4.38,0,0,1-1.7,1.66,5.47,5.47,0,0,1-2.76.64,4.66,4.66,0,0,1-2.71-.73,2.42,2.42,0,0,1-1.07-2.16,2.38,2.38,0,0,1,.56-1.66,3.44,3.44,0,0,1,1.5-.92,10.1,10.1,0,0,1,2-.45l1.16-.15,1.48-.21a11.62,11.62,0,0,0,1.35-.29,1.59,1.59,0,0,0,.77-.38Z" transform="translate(-191.68 -244.84)"></path>
        <path d="M536.53,267a5,5,0,0,1-.75.05,3.38,3.38,0,0,1-1.15-.19,1.71,1.71,0,0,1-.88-.77,3.5,3.5,0,0,1-.35-1.75V253.89h3.83v-2.33H533.4v-4.3h-2.75v4.3h-2.71v2.33h2.71v11.2a4.33,4.33,0,0,0,.73,2.59,4.47,4.47,0,0,0,1.84,1.53,5.55,5.55,0,0,0,2.28.5,6.23,6.23,0,0,0,1.27-.11,5.48,5.48,0,0,0,.79-.22l-.56-2.47Z" transform="translate(-191.68 -244.84)"></path>
        <path d="M544.36,244.84a1.93,1.93,0,0,0-1.38.54,1.75,1.75,0,0,0-.58,1.32A1.72,1.72,0,0,0,543,248a2,2,0,0,0,2.76,0,1.72,1.72,0,0,0,.58-1.32,1.75,1.75,0,0,0-.58-1.32A1.93,1.93,0,0,0,544.36,244.84Z" transform="translate(-191.68 -244.84)"></path>
        <rect x="351.28" y="6.72" width="2.75" height="17.92"></rect>
        <path d="M562.69,252.48a7.85,7.85,0,0,0-11.35,3.24,11,11,0,0,0-1,4.89,10.86,10.86,0,0,0,1,4.85,7.86,7.86,0,0,0,14.2,0,10.86,10.86,0,0,0,1-4.85,11,11,0,0,0-1-4.89A7.77,7.77,0,0,0,562.69,252.48Zm.54,11.47a5.61,5.61,0,0,1-1.76,2.48,4.71,4.71,0,0,1-3,.95,4.76,4.76,0,0,1-3-.95,5.61,5.61,0,0,1-1.76-2.48,9.56,9.56,0,0,1-.57-3.34,9.66,9.66,0,0,1,.57-3.35,5.7,5.7,0,0,1,1.76-2.51,4.76,4.76,0,0,1,3-.95,4.71,4.71,0,0,1,3,.95,5.7,5.7,0,0,1,1.76,2.51,9.66,9.66,0,0,1,.57,3.35A9.56,9.56,0,0,1,563.23,264Z" transform="translate(-191.68 -244.84)"></path>
        <path d="M584.5,254.3a5.12,5.12,0,0,0-2.12-2.24,6.65,6.65,0,0,0-3.19-.74,5.93,5.93,0,0,0-3.31.84,5.11,5.11,0,0,0-1.92,2.2h-.23v-2.8h-2.66v17.92h2.75V258.7a5.45,5.45,0,0,1,.6-2.66,4.1,4.1,0,0,1,1.63-1.67,4.75,4.75,0,0,1,2.35-.57,3.9,3.9,0,0,1,3,1.18,4.68,4.68,0,0,1,1.09,3.3v11.2h2.76V258.09A8.44,8.44,0,0,0,584.5,254.3Z" transform="translate(-191.68 -244.84)"></path>
        <path d="M590.2,264.36a5.53,5.53,0,1,1,5.53,5.54A5.53,5.53,0,0,1,590.2,264.36Zm9.74,0a4.21,4.21,0,1,0-4.21,4.21A4.21,4.21,0,0,0,599.94,264.36Zm-6.14-2.61h2.58a1.62,1.62,0,0,1,1.56,1.63,1.73,1.73,0,0,1-.83,1.5l1,2h-1.23l-.89-1.72h-1.11v1.72H593.8ZM596,264.3a.86.86,0,0,0,.76-.92.74.74,0,0,0-.73-.8h-1.06v1.72Z" transform="translate(-191.68 -244.84)"></path>
    </g>
    <g class="onto">
        <path d="M464.51,289.31a39.18,39.18,0,1,0,39.18,39.18A39.22,39.22,0,0,0,464.51,289.31Zm0,55.47a16.29,16.29,0,1,1,16.29-16.29A16.31,16.31,0,0,1,464.51,344.78ZM230.86,289.31h-.1A39.18,39.18,0,1,0,270,328.49v0A39.22,39.22,0,0,0,230.86,289.31Zm0,55.47a16.29,16.29,0,0,1-.1-32.58h.1a16.3,16.3,0,0,1,16.29,16.26v0A16.31,16.31,0,0,1,230.86,344.78Zm124.49-15.37v37.5H332.47V329.44a16.32,16.32,0,0,0-16.3-16.27H304v53.74H281.13V290.29h35a39.22,39.22,0,0,1,39.18,39.12ZM417,294.2v19H367.73V290.29l22.89-11.57V294.2Zm0,50.58v22.89H406.91a39.22,39.22,0,0,1-39.17-39.13h0V321h22.89v7.53a16.31,16.31,0,0,0,16.29,16.26Z" transform="translate(-191.68 -244.84)"></path>
    </g>
</svg>